<?xml version="1.0" standalone="no"?>
<!DOCTYPE svg PUBLIC "-//W3C//DTD SVG 20010904//EN"
 "http://www.w3.org/TR/2001/REC-SVG-20010904/DTD/svg10.dtd">
<svg version="1.0" xmlns="http://www.w3.org/2000/svg"
 width="1125.000000pt" height="1386.000000pt" viewBox="0 0 1125.000000 1386.000000"
 preserveAspectRatio="xMidYMid meet">

<g transform="translate(0.000000,1386.000000) scale(0.100000,-0.100000)"
fill="#000000" stroke="none">
<path d="M1240 12771 c-218 -49 -294 -264 -139 -393 l41 -34 -20 -67 c-28 -94
-18 -96 93 -18 46 33 65 39 127 45 121 11 217 66 259 148 23 46 25 128 3 174
-21 45 -85 101 -142 126 -52 22 -166 32 -222 19z"/>
<path d="M1949 12771 c-14 -5 -37 -16 -51 -25 -23 -15 -26 -15 -31 -1 -4 10
-20 15 -47 15 l-40 0 0 -300 0 -300 55 0 55 0 0 80 0 80 60 0 c33 0 75 6 93
14 80 33 135 148 123 255 -8 72 -43 141 -81 163 -37 21 -101 30 -136 19z m70
-115 c15 -16 24 -41 28 -78 10 -100 -29 -165 -106 -175 l-41 -6 0 136 c0 147
-1 145 61 146 25 1 42 -6 58 -23z"/>
<path d="M2354 12770 c-22 -5 -57 -15 -78 -24 l-37 -15 16 -38 c20 -47 19 -47
46 -32 13 6 50 12 82 13 64 1 87 -15 87 -61 0 -22 -4 -23 -70 -23 -146 0 -215
-86 -166 -205 27 -64 127 -85 206 -45 47 24 50 24 50 5 0 -11 12 -15 46 -15
l46 0 -4 174 c-3 159 -5 177 -24 203 -41 55 -117 79 -200 63z m116 -289 c0
-50 -27 -71 -88 -71 -35 0 -44 4 -51 22 -19 52 18 88 91 88 l48 0 0 -39z"/>
<path d="M2687 12753 c-29 -9 -47 -19 -44 -26 2 -7 37 -101 77 -210 81 -222
80 -211 12 -282 l-36 -37 32 -29 c18 -16 38 -29 46 -29 22 0 83 74 117 142 41
80 171 438 165 454 -4 11 -95 39 -103 31 -2 -2 -24 -77 -50 -166 -25 -89 -49
-157 -53 -151 -4 6 -27 81 -51 166 -24 84 -48 153 -54 153 -5 -1 -32 -8 -58
-16z"/>
<path d="M2257 10853 c-4 -3 -7 -289 -7 -635 l0 -628 635 0 635 0 0 635 0 635
-628 0 c-346 0 -632 -3 -635 -7z m1081 -624 c2 -361 0 -438 -12 -448 -10 -8
-133 -10 -447 -9 l-434 3 -5 40 c-3 22 -4 223 -2 448 l2 407 448 -2 447 -3 3
-436z"/>
<path d="M2632 10478 c-19 -19 -17 -491 2 -507 9 -8 87 -11 262 -9 l249 3 3
249 c2 175 -1 253 -9 262 -16 19 -488 21 -507 2z"/>
<path d="M3717 10853 c-13 -12 -8 -160 6 -171 7 -6 49 -12 92 -14 l80 -3 5
-85 5 -85 168 -3 168 -2 -3 -73 -3 -72 -70 -5 -70 -5 -3 -92 -3 -93 -94 0 -95
0 0 83 c0 51 -5 88 -12 95 -18 18 -152 16 -167 -2 -8 -9 -11 -43 -9 -93 l3
-78 93 -3 92 -3 0 -189 0 -189 -92 -3 -93 -3 0 -85 0 -85 93 -3 93 -3 -3 -92
-3 -92 -90 -5 -90 -5 -5 -185 -5 -185 -275 0 -275 0 0 90 0 90 180 5 180 5 0
90 0 90 -275 0 -275 0 -5 -90 -5 -90 -92 -3 -92 -3 -3 93 -3 93 -64 3 c-45 2
-67 -1 -72 -10 -5 -7 -9 -50 -9 -95 l0 -83 -90 0 c-102 0 -93 10 -90 -103 2
-81 -5 -87 -107 -87 l-84 0 3 -72 3 -73 180 0 180 0 3 168 2 167 75 0 75 0 0
-84 c0 -56 4 -87 13 -94 7 -6 49 -12 92 -14 l80 -3 3 -162 2 -163 -342 0
c-189 0 -349 -4 -356 -9 -9 -5 -12 -31 -10 -92 l3 -84 80 -3 c43 -2 85 -8 92
-14 18 -14 18 -152 0 -166 -7 -6 -49 -12 -92 -14 l-80 -3 0 -90 0 -90 90 -5
90 -5 2 -267 c2 -203 -1 -269 -10 -277 -7 -5 -49 -11 -92 -13 l-80 -3 -3 -257
-2 -258 22 -4 c45 -10 163 -1 164 12 1 6 2 48 3 92 l1 80 90 0 91 0 -3 -92 -3
-93 -75 -2 c-41 -1 -80 -2 -87 -2 -8 -1 -13 -29 -15 -88 l-3 -88 -90 -5 -90
-5 0 -185 0 -185 90 0 90 0 5 90 5 90 163 3 163 2 -3 -92 -3 -93 -162 -3
c-146 -2 -163 -4 -164 -20 0 -9 -1 -91 -2 -182 l-2 -165 -90 -5 -90 -5 -3 -73
-3 -73 93 3 93 3 0 73 0 72 93 0 92 0 0 -75 0 -74 -92 -3 -93 -3 0 -90 0 -90
-90 -5 -90 -5 0 -90 0 -90 78 -3 c50 -2 84 1 93 9 10 8 14 35 14 95 l0 84 90
0 90 0 0 -84 c0 -101 6 -108 87 -104 l58 3 3 92 3 92 92 3 92 3 3 80 c2 43 8
85 14 92 7 9 38 13 94 13 l84 0 2 -187 3 -188 180 0 180 0 3 92 3 93 187 2
187 3 3 81 c2 58 -1 84 -11 92 -7 6 -49 12 -92 14 l-80 3 -5 70 -5 70 -180 0
-180 0 -3 -72 -3 -73 -94 0 -95 0 0 63 c0 36 -5 68 -12 75 -9 9 -82 12 -265
12 l-254 0 3 88 3 87 156 3 c117 2 160 6 168 16 8 9 11 69 9 187 l-3 174 -92
3 -93 3 0 83 c0 56 4 87 13 94 7 6 49 12 92 14 l80 3 3 87 3 88 277 2 277 3 0
90 0 90 -85 5 -85 5 -5 90 -5 90 -90 5 -90 5 -5 70 -5 70 -92 3 -92 3 -3 92
-3 92 -93 3 -92 3 2 182 3 182 90 5 90 5 0 90 0 90 -160 3 c-112 2 -161 6
-167 15 -13 21 -9 153 5 166 8 6 75 12 168 13 l154 3 3 93 3 92 83 0 c56 0 87
-4 94 -13 6 -7 12 -49 14 -92 l3 -80 183 -3 182 -2 0 -95 0 -94 -87 -3 -88 -3
-3 -70 c-4 -119 1 -114 -100 -117 l-87 -3 0 -180 0 -180 180 -5 180 -5 0 -90
0 -90 -85 -5 -85 -5 -3 -72 -3 -73 369 0 c328 0 371 -2 376 -16 3 -9 6 -89 6
-179 0 -121 -3 -165 -13 -173 -8 -7 -76 -11 -181 -11 -93 0 -172 -3 -177 -8
-4 -4 -9 -44 -11 -88 l-3 -80 -180 -5 -180 -5 -3 -92 -3 -92 -92 -3 -92 -3 -3
-182 c-2 -183 -2 -183 20 -188 13 -3 95 -4 183 -3 l160 3 5 90 5 90 90 0 90 0
3 -82 c2 -50 8 -85 15 -92 7 -5 49 -11 92 -13 l80 -3 5 -85 5 -85 92 -3 93 -3
2 -167 3 -167 62 -3 c34 -2 66 -9 72 -15 5 -7 11 -49 13 -92 l3 -80 85 -5 85
-5 5 -180 5 -180 92 -3 92 -3 3 88 3 88 90 0 90 0 3 -87 3 -87 -93 -3 -93 -3
0 -90 0 -90 93 -3 92 -3 0 -189 0 -189 -92 -3 -93 -3 -5 -70 -5 -70 -78 -3
c-50 -2 -84 1 -93 9 -9 8 -14 33 -14 75 l0 64 -165 0 -165 0 0 -75 0 -75 -95
0 -95 0 0 75 0 74 93 3 92 3 3 188 2 187 75 0 74 0 3 -92 3 -93 85 0 85 0 0
90 0 90 -87 3 -88 3 -2 182 -3 182 -167 3 -167 2 -3 93 -3 92 -90 0 -90 0 -3
-78 c-2 -50 1 -84 9 -93 8 -10 35 -14 95 -14 l84 0 0 -90 0 -90 -84 0 c-59 0
-87 -4 -95 -14 -8 -9 -11 -68 -9 -187 l3 -174 90 -5 90 -5 3 -92 3 -92 -93 -3
-93 -3 -3 -58 c-4 -81 3 -87 104 -87 l84 0 0 -90 0 -90 48 -1 c26 0 67 -1 92
-2 l45 -2 3 93 3 93 72 -3 72 -3 0 -85 0 -85 -70 -5 -70 -5 -3 -93 -3 -92 258
2 258 3 3 80 c2 43 8 85 14 92 15 19 341 19 356 0 6 -7 12 -49 14 -92 l3 -80
88 -3 87 -3 1 238 c1 131 0 248 -1 261 -2 22 0 23 92 20 l93 -3 3 -60 c2 -32
8 -65 14 -72 7 -9 38 -13 94 -13 l83 0 3 -87 3 -88 73 -3 72 -3 0 91 0 90 83
0 c51 0 88 5 95 12 7 7 12 39 12 75 l0 63 185 0 186 0 -3 -72 -3 -73 -87 -3
c-49 -1 -88 -6 -88 -10 -1 -22 -1 -339 -1 -350 1 -10 22 -12 89 -10 l87 3 3
80 c2 43 8 85 14 92 7 9 38 13 94 13 l83 0 3 88 3 87 90 0 90 0 3 -90 3 -90
-93 0 -93 0 0 -90 0 -90 90 0 90 0 5 90 5 90 80 3 c44 1 86 5 93 7 9 3 12 45
12 165 l0 160 90 0 90 0 0 -64 c0 -79 9 -88 87 -84 l58 3 3 73 3 72 -76 0 -75
0 0 375 0 375 168 -2 167 -3 0 -85 0 -85 -82 -3 c-53 -2 -85 -7 -93 -16 -6 -9
-10 -45 -8 -93 l3 -78 90 -5 90 -5 5 -90 5 -90 90 -5 90 -5 3 -167 2 -167 -92
-3 -93 -3 -3 -88 c-3 -82 -4 -87 -25 -87 -12 -1 -83 -1 -158 0 -107 1 -138 -2
-148 -14 -8 -9 -11 -42 -9 -93 l3 -78 355 0 355 0 5 90 5 90 85 0 85 0 5 -90
5 -90 90 0 90 0 0 90 0 90 -90 1 -90 2 -3 91 -3 91 -90 0 -89 0 2 168 3 167
275 0 275 0 3 -87 c3 -101 9 -96 -113 -100 l-70 -3 -3 -161 c-3 -187 -11 -174
108 -165 l75 6 5 85 5 85 167 3 168 2 2 -182 3 -183 180 0 180 0 0 90 0 90
-76 1 c-112 1 -109 -1 -108 98 l1 85 91 3 92 3 3 73 3 72 -89 0 c-103 0 -102
1 -102 -91 l0 -59 -90 0 -89 0 -3 72 -3 73 -70 5 -70 5 -3 174 c-1 105 -7 180
-13 187 -7 8 -41 14 -92 16 l-82 3 0 275 0 275 168 3 167 2 0 -95 0 -95 -75 0
-75 0 0 -90 0 -90 75 0 74 0 3 -93 3 -92 80 -3 c44 -2 83 -6 87 -10 4 -4 8
-42 9 -85 1 -48 6 -80 14 -87 8 -6 46 -10 92 -8 l78 3 0 820 0 820 -80 3 c-43
2 -85 8 -92 14 -16 13 -14 151 2 167 6 6 46 11 90 13 l80 3 0 90 0 90 -87 3
-87 3 -6 29 c-4 16 -6 51 -5 77 1 27 1 54 1 61 -1 9 -41 12 -166 12 l-164 0
-3 -87 -3 -88 -174 -3 c-111 -1 -179 -7 -188 -14 -10 -8 -13 -33 -11 -92 l3
-81 90 -5 90 -5 3 -92 3 -92 -93 -3 -93 -3 0 -90 0 -90 93 -3 93 -3 -3 -87 -3
-87 -92 -3 -93 -3 0 90 0 90 -92 3 -93 3 -3 93 -3 93 -87 -3 -87 -3 0 -90 0
-90 88 -3 87 -3 0 -79 c0 -44 0 -83 0 -87 0 -5 -39 -10 -87 -13 l-88 -5 -5
-165 -5 -165 -90 0 -90 0 -5 350 -5 350 -174 3 c-106 1 -180 7 -188 13 -9 8
-13 58 -15 188 l-3 176 -73 3 -73 3 3 87 3 87 70 5 70 5 5 90 5 90 93 3 92 3
0 -84 c0 -56 4 -88 13 -95 20 -16 152 -15 166 2 8 9 11 43 9 93 l-3 78 -92 3
-93 3 0 94 0 94 93 3 92 3 5 70 5 70 87 3 c99 3 95 7 100 -93 l3 -50 85 -5 85
-5 0 -90 0 -90 -88 -3 -88 -3 3 -92 3 -92 160 -3 c88 -1 170 0 182 3 21 5 22
12 25 93 l3 87 90 5 90 5 3 92 3 92 92 3 92 3 5 70 5 70 67 3 c82 4 77 14 81
-188 l2 -145 79 -3 c44 -2 84 2 89 7 6 6 9 43 8 84 -2 52 2 77 11 85 8 6 50
12 93 14 l80 3 0 165 0 165 -85 3 c-52 2 -87 8 -92 15 -4 7 -8 44 -8 83 0 75
11 97 47 94 10 -1 46 -2 81 -1 l62 1 -2 278 -3 277 -86 3 c-99 3 -99 3 -99 97
0 95 0 95 101 95 l89 0 -2 353 -3 352 -81 3 c-58 2 -84 -1 -92 -11 -6 -7 -12
-49 -14 -92 l-3 -80 -85 -5 -85 -5 -3 -80 c-2 -43 -8 -85 -14 -92 -6 -8 -34
-13 -74 -13 l-64 0 0 -75 0 -75 -187 -2 -188 -3 0 -85 0 -85 185 0 185 0 3 88
3 87 164 0 165 0 0 -80 c0 -44 0 -83 0 -87 0 -5 -39 -10 -87 -13 l-88 -5 -5
-90 -5 -90 -165 -5 -165 -5 -3 -92 -3 -92 -92 -3 -92 -3 -3 -92 -3 -93 -94 0
-95 0 -2 283 -3 282 -87 3 -88 3 0 89 0 89 88 3 87 3 3 73 3 72 -91 0 -90 0 0
178 c0 125 -4 182 -12 190 -7 7 -44 12 -95 12 l-83 0 -2 373 -3 372 -90 5 -90
5 -3 92 -3 92 93 3 93 3 3 154 c1 85 -1 158 -5 162 -5 5 -43 9 -86 11 -43 1
-82 7 -87 13 -5 6 -10 47 -12 90 l-3 80 -90 0 -90 0 -3 -183 -2 -183 -73 3
-72 3 -3 88 -3 87 -147 2 c-81 0 -158 2 -172 2 -48 3 -50 -1 -50 -95 l0 -89
-79 0 c-44 0 -86 -3 -95 -6 -14 -5 -16 -30 -16 -170 l0 -165 -92 3 -93 3 -5
90 -5 90 -87 3 c-60 2 -88 7 -89 15 -3 36 1 119 6 127 4 6 44 10 91 10 l84 0
0 185 0 185 -447 -2 -448 -3 0 -255 0 -255 165 -5 165 -5 5 -90 5 -90 90 -5
90 -5 3 -70 c2 -38 0 -80 -3 -92 l-5 -23 -249 0 c-191 0 -251 3 -259 13 -6 7
-12 49 -14 92 l-3 80 -78 3 c-45 2 -84 -2 -91 -8 -8 -6 -14 -40 -15 -88 -1
-42 -5 -80 -9 -84 -4 -4 -43 -8 -87 -10 l-80 -3 -5 -90 -5 -90 -92 -3 -92 -3
-3 93 -3 93 -70 3 c-126 4 -115 -14 -115 185 0 121 4 177 12 185 13 13 145 17
165 4 7 -5 13 -40 15 -92 l3 -85 90 0 90 0 5 90 5 90 86 3 c99 3 98 3 89 97
l-5 50 -462 3 -463 2 0 90 c0 87 1 90 23 90 12 1 90 1 172 0 83 0 156 4 163 8
9 6 12 32 10 93 l-3 84 -441 3 c-242 1 -444 -1 -447 -5z m3101 -375 c7 -7 12
-39 12 -75 l0 -63 165 0 165 0 0 75 0 76 93 -3 92 -3 3 -72 3 -72 -93 -3 -93
-3 -5 -185 -5 -185 -73 -3 -72 -3 2 -182 3 -182 72 -3 72 -3 3 88 3 88 90 0
90 0 3 -182 2 -183 95 0 95 0 2 -187 3 -188 93 -3 93 -3 -3 -72 -3 -72 -90 -5
-90 -5 -5 -85 -5 -85 -92 -3 -92 -3 -3 88 -3 88 -154 3 c-93 1 -160 7 -168 13
-8 7 -13 35 -13 75 l0 64 -185 0 -185 0 -2 -162 -3 -163 -70 -3 c-119 -4 -114
1 -117 -100 l-3 -87 -80 -3 c-43 -2 -85 -8 -92 -14 -9 -7 -13 -38 -13 -94 l0
-84 -280 0 -280 0 0 -39 c0 -44 12 -51 93 -51 74 0 194 -28 282 -66 57 -24 96
-34 133 -34 l51 0 3 93 3 92 90 0 90 0 0 -90 0 -90 -92 -3 -93 -3 0 -50 c0
-36 10 -70 35 -123 19 -41 41 -100 48 -133 l14 -58 44 0 44 0 3 82 c2 50 8 85
15 92 7 5 49 11 92 13 l80 3 5 275 5 275 183 3 182 2 0 84 c0 59 4 87 14 95 9
8 63 11 167 9 l154 -3 3 -92 3 -93 178 0 c136 0 181 -3 190 -13 6 -8 12 -80
13 -188 l3 -174 88 -3 87 -3 0 -89 c0 -50 -3 -90 -7 -90 -5 0 -131 -1 -281 -3
l-272 -2 0 283 0 282 -170 0 -170 0 -2 -187 -3 -188 -87 -3 -88 -3 -2 -182 -3
-182 -90 -5 -90 -5 -5 -90 -5 -90 -90 -5 -90 -5 -3 -72 -3 -73 185 0 c211 0
193 -9 198 95 l3 50 88 3 87 3 0 82 c0 51 5 88 12 95 7 7 39 12 75 12 l63 0 0
84 c0 55 4 87 13 94 6 6 48 10 92 9 l80 -2 3 -262 2 -263 -90 0 c-101 0 -97
-4 -102 95 l-3 50 -72 3 -73 3 -2 -168 -3 -168 -87 -3 -88 -3 0 -82 c0 -51 -5
-88 -12 -95 -13 -13 -145 -17 -165 -4 -7 5 -13 40 -15 92 l-3 85 -92 3 -93 3
0 -186 0 -185 280 0 281 0 -3 -92 -3 -93 -180 -5 -180 -5 -3 -92 -3 -93 186 0
186 0 -3 -92 -3 -93 -87 -3 -88 -3 0 -89 0 -89 88 -3 87 -3 3 -72 3 -72 -88
-3 -88 -3 -3 -70 c-4 -121 1 -115 -102 -115 l-90 0 -2 -372 -3 -373 -90 -5
-90 -5 -5 -90 -5 -90 -81 -3 c-60 -2 -84 1 -93 11 -8 10 -11 66 -9 188 l3 174
90 5 90 5 0 85 0 85 -90 0 -90 0 -3 -87 -3 -88 -89 0 -89 0 -3 88 -3 87 -90 5
-90 5 0 90 0 90 80 3 c43 2 85 8 93 14 10 9 13 48 11 177 -1 91 -4 172 -6 179
-6 13 -149 17 -170 4 -7 -5 -13 -40 -15 -92 l-3 -85 -90 -5 -90 -5 -5 -90 -5
-90 -72 -3 -73 -3 0 -94 0 -94 73 -3 72 -3 0 -85 0 -85 -70 0 -70 0 -3 88 -3
87 -82 0 c-51 0 -88 5 -95 12 -7 7 -12 44 -12 95 l0 84 -92 -3 -93 -3 -3 -182
-2 -182 -88 -3 -87 -3 -3 -92 -3 -92 88 -3 88 -3 3 -187 2 -188 -90 0 -90 0 0
-64 c0 -42 -5 -67 -14 -75 -9 -8 -43 -11 -93 -9 l-78 3 -3 73 -3 72 96 0 95 0
0 190 0 190 -95 0 -95 0 0 95 0 95 95 0 95 0 0 185 0 184 -92 3 -93 3 -3 179
c-2 137 1 181 10 188 7 4 91 8 186 8 l172 0 0 75 0 75 -277 2 -278 3 0 85 0
85 80 3 c43 2 85 8 92 14 10 8 13 34 11 92 l-3 81 -87 3 c-101 3 -96 -2 -100
117 l-3 70 -78 3 c-50 2 -84 -1 -93 -9 -11 -9 -14 -62 -14 -280 l0 -269 -165
0 -165 0 0 173 c0 94 -4 177 -8 184 -5 7 -40 13 -92 15 l-85 3 0 185 0 185
165 5 165 5 5 275 5 275 85 0 85 0 3 -80 c2 -43 8 -85 14 -92 7 -9 38 -13 94
-13 l83 0 3 93 3 92 93 3 92 3 0 74 0 74 -92 3 -93 3 -3 78 c-2 50 1 84 9 93
8 9 33 14 79 14 102 0 100 2 100 -101 l0 -89 39 0 39 0 12 97 c10 84 42 212
64 263 5 13 -6 16 -66 18 -40 2 -76 6 -80 8 -14 9 -10 718 4 732 8 8 64 12
188 12 l175 0 -2 -77 c-1 -43 -2 -86 -3 -95 0 -15 -13 -18 -87 -20 l-88 -3 -3
-255 -2 -255 41 48 c23 27 64 63 91 82 l50 33 2 174 1 173 90 5 90 5 3 92 3
92 -93 3 c-65 2 -93 7 -94 16 -1 6 -2 46 -3 87 l-1 74 -87 3 -88 3 -3 73 -3
72 281 0 280 0 0 95 0 95 -89 0 c-104 0 -101 -4 -101 111 l0 79 -280 0 -279 0
-3 -92 -3 -93 -185 0 -185 0 0 90 0 90 188 3 187 2 0 95 0 94 -92 3 -93 3 0
85 0 85 93 3 92 3 0 -91 0 -91 93 3 92 3 3 88 3 87 89 0 89 0 3 -87 3 -88 92
-3 92 -3 3 88 3 88 90 0 90 0 3 -87 3 -88 74 0 74 0 3 88 3 87 90 0 90 0 0
-85 0 -85 -92 -3 -93 -3 0 -94 0 -95 179 0 c141 0 181 -3 190 -14 8 -10 11
-67 9 -190 l-3 -176 93 0 92 0 0 -63 c0 -36 5 -68 12 -75 13 -13 145 -17 165
-4 7 4 13 36 15 72 l3 65 90 5 90 5 3 283 2 282 -94 0 -95 0 -3 -92 -3 -93
-90 0 -90 0 -3 93 -3 92 -89 0 c-53 0 -90 4 -91 10 0 6 0 42 0 80 0 39 0 75 0
80 1 6 38 10 91 10 l89 0 3 93 3 92 90 5 90 5 3 92 3 92 92 3 92 3 3 168 2
167 83 0 c51 0 88 -5 95 -12z m-2400 -706 l2 -373 -87 3 -88 3 -5 180 -5 180
-72 3 -72 3 -3 -88 -3 -88 -92 -3 -93 -3 0 90 0 90 93 3 92 3 3 188 2 187 163
-2 162 -3 3 -373z m-330 -660 l3 -93 72 3 72 3 5 90 5 90 88 3 87 3 0 -95 0
-96 188 -2 187 -3 3 -58 c2 -35 -2 -64 -9 -73 -9 -11 -48 -14 -190 -14 l-179
0 0 -90 0 -90 -90 0 -90 0 0 90 0 90 90 0 90 0 0 75 0 75 -90 0 -89 0 -3 -72
-3 -73 -72 -3 -73 -3 0 -89 0 -89 73 -3 72 -3 3 -92 3 -92 87 -3 87 -3 5 -185
5 -185 90 -5 90 -5 3 -87 3 -86 -81 -4 c-45 -2 -88 1 -96 5 -10 6 -14 30 -14
92 l0 85 -260 0 -260 0 0 -90 0 -91 -92 3 -93 3 -3 88 -3 87 -94 0 -95 0 0
-89 c0 -49 -4 -91 -10 -93 -5 -1 -46 -2 -90 0 l-80 4 0 89 0 89 90 0 89 0 3
93 3 92 90 0 90 0 3 -92 3 -93 94 0 95 0 2 188 3 187 93 3 92 3 0 94 0 95
-190 0 -189 0 -3 -92 -3 -93 -92 -3 -93 -3 0 96 0 95 -90 0 -90 0 0 90 0 90
90 0 90 0 0 -90 0 -90 95 0 95 0 0 165 0 165 95 0 95 0 0 88 c0 49 3 92 7 96
4 4 46 5 93 4 l85 -3 3 -93z m4392 -897 l5 -90 70 -5 70 -5 0 -180 0 -180 -70
0 -70 0 -3 80 c-2 43 -8 85 -14 92 -11 13 -132 19 -162 7 -14 -5 -16 -38 -16
-265 l0 -260 -92 3 -93 3 -5 70 -5 70 -80 3 c-43 2 -85 8 -92 14 -10 8 -13 55
-13 189 l0 179 33 -2 c17 0 60 0 95 1 l62 1 0 90 0 90 79 0 c115 0 111 -3 111
101 l0 90 93 -3 92 -3 5 -90z m-4252 -287 c8 -7 12 -39 12 -94 l0 -83 88 -3
87 -3 0 -90 0 -90 -255 0 -255 0 -3 175 c-1 96 0 180 3 188 4 10 39 13 157 12
88 -1 158 -6 166 -12z m-1458 -273 l0 -95 95 0 96 0 -3 -72 -3 -73 -92 -3 -93
-3 0 -94 0 -94 93 -3 92 -3 3 -92 3 -93 -84 0 c-51 0 -88 5 -95 12 -7 7 -12
44 -12 95 l0 82 -72 3 -73 3 -3 70 c-5 113 -4 115 78 115 l70 0 0 75 0 74 -72
3 -73 3 -3 78 c-2 50 1 84 9 93 8 9 33 14 75 14 l64 0 0 -95z m748 -1093 l3
-93 -88 3 -88 3 -3 93 -3 93 88 -3 88 -3 3 -93z m5106 82 c3 -9 6 -168 6 -355
l0 -339 85 0 c62 0 86 -4 92 -14 4 -8 6 -92 3 -188 l-5 -173 -87 -3 -88 -3 -2
188 -3 188 -72 3 -73 3 -2 162 -3 162 -92 3 -93 3 0 94 0 95 83 0 c51 0 88 5
95 12 7 7 12 42 12 88 0 42 3 80 7 83 3 4 34 7 69 7 47 0 63 -4 68 -16z m-524
-619 l0 -75 84 0 c60 0 87 -4 95 -14 8 -9 11 -43 9 -93 l-3 -78 -90 0 -90 0
-3 92 -3 92 -92 3 -92 3 -3 73 -3 72 96 0 95 0 0 -75z m-5332 -172 l3 -93 -76
0 -75 0 0 95 0 96 73 -3 72 -3 3 -92z m750 -1 l3 -93 -88 3 -88 3 -3 93 -3 93
88 -3 88 -3 3 -93z m1080 89 c9 -5 12 -31 10 -92 l-3 -84 -84 -3 c-61 -2 -87
1 -92 10 -13 20 -11 152 3 166 14 14 146 16 166 3z m2740 0 c9 -5 12 -31 10
-92 l-3 -84 -92 -3 -92 -3 -3 -92 -3 -92 -72 -3 -73 -3 0 -95 0 -95 -87 3 -88
3 0 90 0 90 88 3 87 3 0 82 c0 51 5 88 12 95 7 7 39 12 75 12 l63 0 0 83 c0
51 5 88 12 95 14 14 146 16 166 3z m757 -651 l0 -275 -275 0 -275 0 -3 265
c-1 146 0 270 3 278 3 10 63 12 277 10 l273 -3 0 -275z m715 0 l0 -90 -90 0
-90 0 0 90 0 90 90 0 90 0 0 -90z m-4732 -102 c7 -7 12 -44 12 -95 l0 -84 -92
3 -93 3 -3 79 c-2 44 -1 85 2 93 7 17 157 18 174 1z m1995 -1 c10 -25 8 -314
-2 -340 -10 -25 -14 -26 -93 -29 l-83 -3 -3 -92 -3 -92 -92 -3 -92 -3 -3 -72
-3 -73 -75 0 -74 0 2 168 3 167 70 5 70 5 5 90 5 90 90 5 90 5 3 80 c1 44 4
86 7 93 6 18 171 17 178 -1z m1657 -797 l0 -90 -95 0 -95 0 0 90 0 90 95 0 95
0 0 -90z"/>
<path d="M6834 10137 c-3 -8 -4 -49 -2 -93 l3 -79 88 -3 88 -3 -3 93 -3 93
-83 3 c-63 2 -84 0 -88 -11z"/>
<path d="M6260 9680 l0 -90 95 0 96 0 -3 88 -3 87 -92 3 -93 3 0 -91z"/>
<path d="M6640 9680 l0 -91 93 3 92 3 0 85 0 85 -92 3 -93 3 0 -91z"/>
<path d="M5360 9495 l0 -95 95 0 95 0 0 -95 0 -96 73 3 72 3 3 93 3 92 -76 0
-75 0 0 95 0 95 -95 0 -95 0 0 -95z"/>
<path d="M7172 9388 c-19 -19 -17 -342 2 -357 9 -8 43 -11 93 -9 l78 3 3 188
2 187 -83 0 c-51 0 -88 -5 -95 -12z"/>
<path d="M5550 8946 l0 -75 -92 -3 -93 -3 -3 -88 -3 -88 93 3 93 3 3 88 3 87
167 -2 167 -3 5 -180 5 -180 87 -3 c84 -3 88 -2 93 20 3 13 4 129 2 258 l-2
235 -262 3 -263 2 0 -74z"/>
<path d="M5554 8487 c-3 -8 -4 -49 -2 -93 l3 -79 73 -3 73 -3 -3 93 -3 93 -68
3 c-50 2 -69 -1 -73 -11z"/>
<path d="M5379 8195 c-344 -65 -479 -268 -479 -720 0 -402 101 -594 359 -682
36 -12 77 -22 91 -22 14 0 -4 8 -40 18 -69 17 -171 63 -188 84 -6 8 -5 30 5
67 38 150 141 251 303 301 60 19 98 24 195 24 70 0 143 -6 175 -14 125 -31
252 -123 298 -214 31 -62 52 -149 40 -164 -17 -21 -119 -67 -188 -84 -36 -10
-54 -18 -40 -18 38 -1 149 40 214 79 100 61 178 180 212 325 10 46 17 138 21
270 4 174 2 213 -16 305 -47 241 -164 371 -388 432 -103 27 -454 36 -574 13z
m338 -307 c126 -54 196 -185 164 -305 -44 -161 -220 -241 -369 -167 -117 58
-170 193 -124 315 9 25 24 54 32 65 23 30 91 80 125 92 42 14 138 14 172 0z"/>
<path d="M4798 7318 l-3 -93 -92 -3 -93 -3 0 -94 0 -94 93 -3 92 -3 5 -85 5
-85 92 -3 92 -3 3 -92 3 -92 85 -5 85 -5 3 -277 2 -278 174 0 c96 0 181 -3
190 -6 12 -5 16 -21 16 -75 l0 -69 -187 -2 -188 -3 -3 -92 -3 -92 -87 -3 -87
-3 -3 -92 -3 -93 93 0 93 0 -3 95 -2 96 92 -3 93 -3 3 -92 3 -93 94 0 95 0 0
190 0 189 73 3 72 3 3 60 c2 32 8 65 14 72 15 18 341 19 356 1 5 -7 10 -37 10
-65 0 -29 1 -57 1 -63 1 -6 38 -10 91 -10 l90 0 2 163 3 162 90 0 90 0 5 -85
5 -85 90 0 90 0 3 182 2 182 -92 3 -93 3 -3 188 -2 187 -84 0 c-56 0 -87 -4
-94 -13 -6 -7 -12 -49 -14 -92 l-3 -80 -80 -3 c-44 -2 -84 -7 -89 -12 -5 -5
-8 -41 -7 -81 1 -41 -3 -77 -10 -85 -9 -11 -51 -14 -191 -14 l-179 0 3 93 3
92 90 5 90 5 3 44 c3 41 2 43 -20 38 -13 -4 -89 -9 -170 -13 l-148 -7 0 -129
0 -128 -83 0 c-51 0 -88 5 -95 12 -8 8 -12 54 -12 140 l0 127 -42 11 c-63 16
-127 40 -178 66 -31 17 -62 24 -97 24 l-53 0 0 54 c0 38 -9 72 -31 121 -34 75
-64 201 -75 313 l-7 72 -38 0 -38 0 -3 -92z m902 -937 c0 -72 -3 -90 -16 -95
-27 -10 -110 -6 -122 6 -7 7 -12 44 -12 95 l0 83 75 0 75 0 0 -89z"/>
<path d="M6376 7338 c-4 -40 -10 -83 -13 -95 -5 -21 -2 -23 41 -23 l46 0 0 95
0 95 -34 0 -33 0 -7 -72z"/>
<path d="M4448 7030 c-22 -6 -23 -10 -23 -90 l0 -85 90 0 90 0 0 89 0 88 -67
2 c-37 0 -77 -1 -90 -4z"/>
<path d="M5393 6763 c9 -2 23 -2 30 0 6 3 -1 5 -18 5 -16 0 -22 -2 -12 -5z"/>
<path d="M5843 6763 c9 -2 23 -2 30 0 6 3 -1 5 -18 5 -16 0 -22 -2 -12 -5z"/>
<path d="M5478 6753 c23 -2 61 -2 85 0 23 2 4 4 -43 4 -47 0 -66 -2 -42 -4z"/>
<path d="M5663 6753 c32 -2 81 -2 110 0 29 2 3 3 -58 3 -60 0 -84 -1 -52 -3z"/>
<path d="M6462 5938 c-7 -7 -12 -44 -12 -95 l0 -83 -83 0 c-51 0 -88 -5 -95
-12 -18 -18 -16 -152 2 -167 9 -8 43 -11 93 -9 l78 3 3 93 3 92 94 0 95 0 0
83 c0 51 -5 88 -12 95 -7 7 -41 12 -83 12 -42 0 -76 -5 -83 -12z"/>
<path d="M3900 8950 c0 -82 2 -83 115 -78 l70 3 3 73 3 72 -96 0 -95 0 0 -70z"/>
<path d="M4092 8408 l3 -93 58 -3 c81 -4 87 3 87 104 l0 84 -75 0 -76 0 3 -92z"/>
<path d="M7730 5290 l0 -90 90 0 90 0 0 90 0 90 -90 0 -90 0 0 -90z"/>
<path d="M7737 10853 c-4 -3 -7 -289 -7 -635 l0 -628 633 2 632 3 0 630 0 630
-626 3 c-344 1 -629 -1 -632 -5z m1075 -607 c2 -234 1 -435 -2 -448 l-6 -23
-427 -3 c-284 -1 -435 1 -447 8 -19 10 -20 24 -20 444 0 238 3 436 7 439 3 4
206 7 449 7 l444 0 2 -424z"/>
<path d="M8111 10476 c-8 -9 -11 -87 -9 -262 l3 -249 249 -3 c175 -2 253 1
262 9 19 16 21 488 2 507 -19 19 -491 17 -507 -2z"/>
<path d="M8295 9388 c-3 -7 -6 -49 -7 -93 l-3 -80 -90 -5 -90 -5 -3 -81 c-2
-60 1 -84 11 -93 10 -8 66 -11 188 -9 l174 3 3 174 c2 119 -1 178 -9 187 -15
19 -168 20 -174 2z"/>
<path d="M7361 6836 c-8 -9 -11 -43 -9 -93 l3 -78 90 0 90 0 3 78 c2 50 -1 84
-9 93 -8 10 -34 14 -84 14 -50 0 -76 -4 -84 -14z"/>
<path d="M7734 6837 c-3 -8 -4 -49 -2 -93 l3 -79 85 0 85 0 0 90 0 90 -83 3
c-63 2 -84 0 -88 -11z"/>
<path d="M2252 4748 l3 -633 630 0 630 0 3 633 2 632 -635 0 -635 0 2 -632z
m1077 438 c8 -9 10 -135 9 -447 l-3 -434 -447 -3 -448 -2 -2 427 c-2 236 0
438 4 451 l8 22 434 0 c354 0 436 -2 445 -14z"/>
<path d="M2632 4998 c-17 -17 -17 -489 0 -506 17 -17 489 -17 506 0 9 9 12 78
12 249 0 131 -3 244 -6 253 -5 14 -37 16 -253 16 -179 0 -250 -3 -259 -12z"/>
<path d="M5704 4287 c-3 -8 -4 -49 -2 -93 l3 -79 90 0 90 0 3 78 c2 50 -1 84
-9 93 -16 19 -167 20 -175 1z"/>
<path d="M5280 2110 l0 -130 25 0 25 0 0 130 0 130 -25 0 -25 0 0 -130z"/>
<path d="M5758 2148 l-3 -93 -27 -3 -28 -3 0 90 c0 84 -1 91 -20 91 -19 0 -20
-7 -20 -215 0 -208 1 -215 20 -215 19 0 20 7 20 110 l0 110 30 0 30 0 0 -125
c0 -118 1 -125 20 -125 19 0 20 7 20 235 0 227 -1 235 -20 235 -18 0 -20 -8
-22 -92z"/>
<path d="M6000 2220 c-40 -10 -80 -51 -80 -83 0 -58 62 -91 170 -90 82 0 133
23 151 65 16 38 -2 76 -46 97 -35 17 -147 23 -195 11z m182 -45 c29 -12 33
-45 9 -69 -19 -18 -33 -21 -105 -21 -68 0 -88 4 -105 19 -24 22 -26 35 -8 60
22 30 148 37 209 11z"/>
<path d="M4970 2190 c0 -18 7 -20 85 -20 99 0 103 -5 53 -71 -22 -28 -54 -53
-95 -73 -34 -17 -63 -35 -63 -39 0 -19 35 -18 75 1 86 42 143 110 158 190 l7
32 -110 0 c-103 0 -110 -1 -110 -20z"/>
<path d="M5420 2038 l0 -151 101 6 c56 4 104 9 107 11 2 3 2 11 -1 18 -3 10
-24 12 -82 8 -42 -3 -78 -3 -81 -1 -2 2 -4 26 -4 53 l0 48 70 0 c56 0 70 3 70
15 0 12 -14 15 -70 15 l-70 0 0 50 0 50 70 0 c56 0 70 3 70 15 0 12 -17 15
-90 15 l-90 0 0 -152z"/>
<path d="M5870 1990 c0 -18 7 -20 70 -20 l70 0 0 -50 c0 -43 3 -50 20 -50 17
0 20 7 20 50 l0 50 45 0 45 0 0 -51 c0 -43 3 -50 18 -47 13 2 18 15 20 50 l3
47 57 3 c45 2 58 7 60 21 3 16 -12 17 -212 17 -209 0 -216 -1 -216 -20z"/>
<path d="M5020 1865 l0 -85 155 0 156 0 -3 83 -3 82 -152 3 -153 3 0 -86z
m260 -5 l0 -51 -107 3 -108 3 -3 48 -3 47 110 0 111 0 0 -50z"/>
<path d="M5920 1855 l0 -65 165 0 c140 0 165 2 165 15 0 13 -23 15 -145 15
l-145 0 0 50 c0 43 -3 50 -20 50 -18 0 -20 -7 -20 -65z"/>
</g>
</svg>
