<?xml version="1.0" standalone="no"?>
<!DOCTYPE svg PUBLIC "-//W3C//DTD SVG 20010904//EN"
 "http://www.w3.org/TR/2001/REC-SVG-20010904/DTD/svg10.dtd">
<svg version="1.0" xmlns="http://www.w3.org/2000/svg"
 width="1206.000000pt" height="1206.000000pt" viewBox="0 0 1206.000000 1206.000000"
 preserveAspectRatio="xMidYMid meet">

<g transform="translate(0.000000,1206.000000) scale(0.100000,-0.100000)"
fill="#000000" stroke="none">
<path d="M3370 8730 l0 -500 500 0 500 0 0 500 0 500 -500 0 -500 0 0 -500z
m860 0 l0 -360 -360 0 -360 0 0 360 0 360 360 0 360 0 0 -360z"/>
<path d="M3650 8730 l0 -220 220 0 220 0 0 220 0 220 -220 0 -220 0 0 -220z"/>
<path d="M4520 8945 l0 -285 70 0 70 0 0 -75 0 -75 -70 0 -70 0 0 -140 0 -140
70 0 70 0 0 70 0 70 75 0 75 0 0 -215 0 -215 -145 0 -145 0 0 -75 0 -75 70 0
70 0 0 -215 0 -215 75 0 75 0 0 -70 0 -70 -145 0 -145 0 0 -75 0 -75 -75 0
-75 0 0 75 0 75 -70 0 -70 0 0 70 0 70 145 0 145 0 0 75 0 75 -145 0 -145 0 0
70 0 70 70 0 70 0 0 70 0 70 -70 0 -70 0 0 75 0 75 70 0 70 0 0 70 0 70 -215
0 -215 0 0 -70 0 -70 -145 0 -145 0 0 70 0 70 -140 0 -140 0 0 -70 0 -70 70 0
70 0 0 -75 0 -75 70 0 70 0 0 -70 0 -70 -70 0 -70 0 0 -70 0 -70 145 0 145 0
0 -75 0 -75 -215 0 -215 0 0 -145 0 -145 140 0 140 0 0 75 0 75 75 0 75 0 0
70 0 70 70 0 70 0 0 -70 0 -70 145 0 145 0 0 -75 0 -75 70 0 70 0 0 -70 0 -70
-70 0 -70 0 0 -70 0 -70 145 0 145 0 0 -145 0 -145 -75 0 -75 0 0 70 0 70 -70
0 -70 0 0 -70 0 -70 -70 0 -70 0 0 -75 0 -75 -75 0 -75 0 0 75 0 75 -70 0 -70
0 0 -75 0 -75 -145 0 -145 0 0 75 0 75 70 0 70 0 0 70 0 70 220 0 220 0 0 75
0 75 -220 0 -220 0 0 -75 0 -75 -70 0 -70 0 0 75 0 75 -70 0 -70 0 0 -75 0
-75 70 0 70 0 0 -70 0 -70 -70 0 -70 0 0 -75 0 -75 70 0 70 0 0 -70 0 -70 -70
0 -70 0 0 -70 0 -70 70 0 70 0 0 -75 0 -75 215 0 215 0 0 75 0 75 145 0 145 0
0 -75 0 -75 -70 0 -70 0 0 -70 0 -70 70 0 70 0 0 -75 0 -75 -145 0 -145 0 0
-70 0 -70 -145 0 -145 0 0 70 0 70 75 0 75 0 0 75 0 75 -75 0 -75 0 0 -75 0
-75 -140 0 -140 0 0 -70 0 -70 140 0 140 0 0 -145 0 -145 -140 0 -140 0 0 -70
0 -70 215 0 215 0 0 145 0 145 70 0 70 0 0 -75 0 -75 75 0 75 0 0 75 0 75 215
0 215 0 0 -75 0 -75 -145 0 -145 0 0 -70 0 -70 145 0 145 0 0 -75 0 -75 145 0
145 0 0 75 0 75 70 0 70 0 0 -145 0 -145 -70 0 -70 0 0 -70 0 -70 70 0 70 0 0
-220 0 -220 70 0 70 0 0 145 0 145 75 0 75 0 0 75 0 75 -75 0 -75 0 0 70 0 70
360 0 360 0 0 -145 0 -145 -70 0 -70 0 0 75 0 75 -70 0 -70 0 0 -75 0 -75 -75
0 -75 0 0 -70 0 -70 -70 0 -70 0 0 -75 0 -75 70 0 70 0 0 -70 0 -70 145 0 145
0 0 -70 0 -70 145 0 145 0 0 140 0 140 70 0 70 0 0 145 0 145 75 0 75 0 0 -70
0 -70 70 0 70 0 0 -215 0 -215 70 0 70 0 0 215 0 215 -70 0 -70 0 0 70 0 70
70 0 70 0 0 75 0 75 145 0 145 0 0 140 0 140 75 0 75 0 0 -70 0 -70 70 0 70 0
0 70 0 70 145 0 145 0 0 -70 0 -70 -75 0 -75 0 0 -70 0 -70 -70 0 -70 0 0 -75
0 -75 -215 0 -215 0 0 -215 0 -215 70 0 70 0 0 -70 0 -70 145 0 145 0 0 70 0
70 70 0 70 0 0 70 0 70 145 0 145 0 0 75 0 75 -70 0 -70 0 0 70 0 70 145 0
145 0 0 -215 0 -215 -75 0 -75 0 0 -70 0 -70 575 0 575 0 0 70 0 70 -70 0 -70
0 0 70 0 70 -145 0 -145 0 0 -70 0 -70 -70 0 -70 0 0 70 0 70 -75 0 -75 0 0
145 0 145 75 0 75 0 0 -70 0 -70 145 0 145 0 0 70 0 70 140 0 140 0 0 145 0
145 -70 0 -70 0 0 -70 0 -70 -70 0 -70 0 0 70 0 70 -145 0 -145 0 0 70 0 70
215 0 215 0 0 75 0 75 70 0 70 0 0 145 0 145 -70 0 -70 0 0 -145 0 -145 -70 0
-70 0 0 145 0 145 -75 0 -75 0 0 70 0 70 145 0 145 0 0 70 0 70 70 0 70 0 0
75 0 75 -140 0 -140 0 0 70 0 70 -145 0 -145 0 0 145 0 145 145 0 145 0 0 -70
0 -70 70 0 70 0 0 70 0 70 70 0 70 0 0 70 0 70 -70 0 -70 0 0 75 0 75 -145 0
-145 0 0 -75 0 -75 -70 0 -70 0 0 -70 0 -70 -75 0 -75 0 0 145 0 145 -70 0
-70 0 0 -75 0 -75 -145 0 -145 0 0 145 0 145 75 0 75 0 0 75 0 75 70 0 70 0 0
-75 0 -75 145 0 145 0 0 75 0 75 285 0 285 0 0 70 0 70 -140 0 -140 0 0 70 0
70 -75 0 -75 0 0 -70 0 -70 -70 0 -70 0 0 145 0 145 215 0 215 0 0 70 0 70 70
0 70 0 0 145 0 145 -140 0 -140 0 0 70 0 70 70 0 70 0 0 75 0 75 70 0 70 0 0
70 0 70 -285 0 -285 0 0 -70 0 -70 -75 0 -75 0 0 70 0 70 -70 0 -70 0 0 -70 0
-70 70 0 70 0 0 -75 0 -75 -140 0 -140 0 0 -70 0 -70 140 0 140 0 0 70 0 70
75 0 75 0 0 -70 0 -70 70 0 70 0 0 -145 0 -145 -145 0 -145 0 0 75 0 75 -215
0 -215 0 0 215 0 215 -145 0 -145 0 0 70 0 70 145 0 145 0 0 360 0 360 -70 0
-70 0 0 -70 0 -70 -75 0 -75 0 0 -75 0 -75 75 0 75 0 0 -140 0 -140 -75 0 -75
0 0 70 0 70 -70 0 -70 0 0 70 0 70 -70 0 -70 0 0 75 0 75 70 0 70 0 0 70 0 70
70 0 70 0 0 145 0 145 145 0 145 0 0 70 0 70 -215 0 -215 0 0 -215 0 -215 -70
0 -70 0 0 75 0 75 -145 0 -145 0 0 -220 0 -220 145 0 145 0 0 -70 0 -70 -75 0
-75 0 0 -70 0 -70 -70 0 -70 0 0 70 0 70 -75 0 -75 0 0 70 0 70 -70 0 -70 0 0
75 0 75 70 0 70 0 0 145 0 145 -140 0 -140 0 0 70 0 70 360 0 360 0 0 70 0 70
-360 0 -360 0 0 -70 0 -70 -145 0 -145 0 0 70 0 70 -75 0 -75 0 0 -70 0 -70
75 0 75 0 0 -70 0 -70 -215 0 -215 0 0 70 0 70 70 0 70 0 0 70 0 70 -70 0 -70
0 0 -70 0 -70 -75 0 -75 0 0 70 0 70 -70 0 -70 0 0 -70 0 -70 -145 0 -145 0 0
-70 0 -70 70 0 70 0 0 -75 0 -75 75 0 75 0 0 -70 0 -70 -75 0 -75 0 0 -215 0
-215 75 0 75 0 0 140 0 140 70 0 70 0 0 145 0 145 290 0 290 0 0 75 0 75 145
0 145 0 0 -75 0 -75 70 0 70 0 0 -70 0 -70 -70 0 -70 0 0 -75 0 -75 -145 0
-145 0 0 75 0 75 -75 0 -75 0 0 -75 0 -75 75 0 75 0 0 -140 0 -140 -75 0 -75
0 0 70 0 70 -70 0 -70 0 0 -70 0 -70 -70 0 -70 0 0 70 0 70 -75 0 -75 0 0 -70
0 -70 75 0 75 0 0 -75 0 -75 -75 0 -75 0 0 -70 0 -70 -70 0 -70 0 0 -75 0 -75
-75 0 -75 0 0 75 0 75 -70 0 -70 0 0 430 0 430 -70 0 -70 0 0 75 0 75 -75 0
-75 0 0 140 0 140 -70 0 -70 0 0 -285z m860 0 l0 -145 -70 0 -70 0 0 145 0
145 70 0 70 0 0 -145z m1590 -215 l0 -70 -75 0 -75 0 0 70 0 70 75 0 75 0 0
-70z m-720 -430 l0 -70 -75 0 -75 0 0 70 0 70 75 0 75 0 0 -70z m280 0 l0 -70
75 0 75 0 0 -75 0 -75 145 0 145 0 0 145 0 145 70 0 70 0 0 -215 0 -215 -215
0 -215 0 0 -215 0 -215 -75 0 -75 0 0 -75 0 -75 75 0 75 0 0 -215 0 -215 70 0
70 0 0 -70 0 -70 -70 0 -70 0 0 -75 0 -75 -75 0 -75 0 0 -70 0 -70 75 0 75 0
0 -75 0 -75 70 0 70 0 0 -70 0 -70 75 0 75 0 0 145 0 145 -75 0 -75 0 0 70 0
70 75 0 75 0 0 -70 0 -70 70 0 70 0 0 70 0 70 70 0 70 0 0 -70 0 -70 -70 0
-70 0 0 -145 0 -145 -70 0 -70 0 0 -70 0 -70 70 0 70 0 0 -220 0 -220 70 0 70
0 0 75 0 75 75 0 75 0 0 -75 0 -75 70 0 70 0 0 -70 0 -70 75 0 75 0 0 70 0 70
140 0 140 0 0 75 0 75 75 0 75 0 0 -75 0 -75 70 0 70 0 0 -70 0 -70 -70 0 -70
0 0 -145 0 -145 70 0 70 0 0 -70 0 -70 -70 0 -70 0 0 70 0 70 -75 0 -75 0 0
145 0 145 -70 0 -70 0 0 -145 0 -145 -70 0 -70 0 0 75 0 75 -75 0 -75 0 0 -75
0 -75 -70 0 -70 0 0 -70 0 -70 -145 0 -145 0 0 70 0 70 -70 0 -70 0 0 145 0
145 -145 0 -145 0 0 70 0 70 -75 0 -75 0 0 220 0 220 -140 0 -140 0 0 -145 0
-145 -75 0 -75 0 0 -75 0 -75 -70 0 -70 0 0 75 0 75 70 0 70 0 0 70 0 70 -145
0 -145 0 0 -70 0 -70 -70 0 -70 0 0 215 0 215 -70 0 -70 0 0 -215 0 -215 -75
0 -75 0 0 -75 0 -75 75 0 75 0 0 -140 0 -140 70 0 70 0 0 140 0 140 70 0 70 0
0 -70 0 -70 75 0 75 0 0 -70 0 -70 -75 0 -75 0 0 -145 0 -145 75 0 75 0 0 70
0 70 70 0 70 0 0 145 0 145 75 0 75 0 0 70 0 70 70 0 70 0 0 -70 0 -70 -70 0
-70 0 0 -145 0 -145 -75 0 -75 0 0 -70 0 -70 75 0 75 0 0 -75 0 -75 70 0 70 0
0 145 0 145 70 0 70 0 0 75 0 75 75 0 75 0 0 -75 0 -75 70 0 70 0 0 -70 0 -70
-70 0 -70 0 0 -145 0 -145 -75 0 -75 0 0 70 0 70 -70 0 -70 0 0 -215 0 -215
-70 0 -70 0 0 75 0 75 -75 0 -75 0 0 -75 0 -75 -70 0 -70 0 0 75 0 75 70 0 70
0 0 140 0 140 -145 0 -145 0 0 75 0 75 -70 0 -70 0 0 70 0 70 -145 0 -145 0 0
-70 0 -70 -70 0 -70 0 0 -75 0 -75 -75 0 -75 0 0 75 0 75 -70 0 -70 0 0 70 0
70 -145 0 -145 0 0 -70 0 -70 -70 0 -70 0 0 70 0 70 70 0 70 0 0 75 0 75 -70
0 -70 0 0 70 0 70 -145 0 -145 0 0 70 0 70 145 0 145 0 0 75 0 75 70 0 70 0 0
-75 0 -75 75 0 75 0 0 290 0 290 -75 0 -75 0 0 -145 0 -145 -70 0 -70 0 0 215
0 215 70 0 70 0 0 220 0 220 -70 0 -70 0 0 70 0 70 70 0 70 0 0 -70 0 -70 75
0 75 0 0 70 0 70 70 0 70 0 0 -70 0 -70 -70 0 -70 0 0 -290 0 -290 70 0 70 0
0 -290 0 -290 -70 0 -70 0 0 -140 0 -140 140 0 140 0 0 -145 0 -145 75 0 75 0
0 215 0 215 -75 0 -75 0 0 70 0 70 75 0 75 0 0 75 0 75 -75 0 -75 0 0 70 0 70
75 0 75 0 0 75 0 75 -75 0 -75 0 0 70 0 70 75 0 75 0 0 145 0 145 -75 0 -75 0
0 -75 0 -75 -70 0 -70 0 0 75 0 75 70 0 70 0 0 70 0 70 75 0 75 0 0 -70 0 -70
145 0 145 0 0 -75 0 -75 70 0 70 0 0 -70 0 -70 145 0 145 0 0 70 0 70 70 0 70
0 0 75 0 75 -215 0 -215 0 0 145 0 145 -70 0 -70 0 0 -75 0 -75 -75 0 -75 0 0
75 0 75 -145 0 -145 0 0 70 0 70 75 0 75 0 0 70 0 70 145 0 145 0 0 -70 0 -70
70 0 70 0 0 -70 0 -70 145 0 145 0 0 70 0 70 70 0 70 0 0 70 0 70 -70 0 -70 0
0 75 0 75 -75 0 -75 0 0 -75 0 -75 -70 0 -70 0 0 145 0 145 -70 0 -70 0 0 -70
0 -70 -75 0 -75 0 0 70 0 70 -70 0 -70 0 0 -70 0 -70 -75 0 -75 0 0 70 0 70
-140 0 -140 0 0 145 0 145 70 0 70 0 0 -70 0 -70 70 0 70 0 0 70 0 70 75 0 75
0 0 70 0 70 70 0 70 0 0 75 0 75 75 0 75 0 0 70 0 70 70 0 70 0 0 75 0 75 70
0 70 0 0 -75 0 -75 -70 0 -70 0 0 -70 0 -70 145 0 145 0 0 -145 0 -145 70 0
70 0 0 145 0 145 75 0 75 0 0 70 0 70 70 0 70 0 0 -70 0 -70 70 0 70 0 0 145
0 145 -70 0 -70 0 0 70 0 70 70 0 70 0 0 -70z m-2440 -435 l0 -75 70 0 70 0 0
-70 0 -70 -70 0 -70 0 0 70 0 70 -75 0 -75 0 0 -70 0 -70 -70 0 -70 0 0 70 0
70 70 0 70 0 0 75 0 75 75 0 75 0 0 -75z m860 0 l0 -75 -70 0 -70 0 0 75 0 75
70 0 70 0 0 -75z m3460 0 l0 -75 -75 0 -75 0 0 75 0 75 75 0 75 0 0 -75z
m-1300 -215 l0 -140 70 0 70 0 0 70 0 70 75 0 75 0 0 -70 0 -70 70 0 70 0 0
-75 0 -75 215 0 215 0 0 -70 0 -70 -140 0 -140 0 0 -145 0 -145 -75 0 -75 0 0
-145 0 -145 -70 0 -70 0 0 75 0 75 -145 0 -145 0 0 70 0 70 -70 0 -70 0 0 145
0 145 70 0 70 0 0 -145 0 -145 70 0 70 0 0 70 0 70 145 0 145 0 0 145 0 145
-215 0 -215 0 0 75 0 75 -70 0 -70 0 0 -75 0 -75 -75 0 -75 0 0 145 0 145 75
0 75 0 0 70 0 70 70 0 70 0 0 -140z m1440 -215 l0 -75 -70 0 -70 0 0 75 0 75
70 0 70 0 0 -75z m-430 -575 l0 -70 -145 0 -145 0 0 70 0 70 145 0 145 0 0
-70z m-3750 -435 l0 -75 -70 0 -70 0 0 75 0 75 70 0 70 0 0 -75z m-430 -215
l0 -140 -145 0 -145 0 0 70 0 70 75 0 75 0 0 70 0 70 70 0 70 0 0 -140z m3460
70 l0 -70 285 0 285 0 0 -145 0 -145 -70 0 -70 0 0 75 0 75 -70 0 -70 0 0 -75
0 -75 -75 0 -75 0 0 75 0 75 -70 0 -70 0 0 70 0 70 -75 0 -75 0 0 70 0 70 75
0 75 0 0 -70z m1150 0 l0 -70 -70 0 -70 0 0 70 0 70 70 0 70 0 0 -70z m-4180
-140 l0 -70 -70 0 -70 0 0 70 0 70 70 0 70 0 0 -70z m0 -290 l0 -70 -70 0 -70
0 0 70 0 70 70 0 70 0 0 -70z m3600 -1005 l0 -215 -215 0 -215 0 0 215 0 215
215 0 215 0 0 -215z m-570 -290 l0 -75 -75 0 -75 0 0 75 0 75 75 0 75 0 0 -75z
m860 0 l0 -75 -70 0 -70 0 0 75 0 75 70 0 70 0 0 -75z m-2590 -145 l0 -70 -70
0 -70 0 0 70 0 70 70 0 70 0 0 -70z m290 -145 l0 -75 -75 0 -75 0 0 -70 0 -70
-70 0 -70 0 0 70 0 70 70 0 70 0 0 75 0 75 75 0 75 0 0 -75z m1150 -70 l0
-145 -145 0 -145 0 0 70 0 70 75 0 75 0 0 75 0 75 70 0 70 0 0 -145z"/>
<path d="M5530 7795 l0 -145 -75 0 -75 0 0 -145 0 -145 75 0 75 0 0 75 0 75
70 0 70 0 0 -75 0 -75 145 0 145 0 0 -70 0 -70 70 0 70 0 0 70 0 70 -70 0 -70
0 0 145 0 145 -75 0 -75 0 0 70 0 70 -70 0 -70 0 0 75 0 75 -70 0 -70 0 0
-145z"/>
<path d="M6250 7795 l0 -145 70 0 70 0 0 -70 0 -70 70 0 70 0 0 140 0 140 -70
0 -70 0 0 75 0 75 -70 0 -70 0 0 -145z"/>
<path d="M6250 7145 l0 -215 -75 0 -75 0 0 -70 0 -70 -70 0 -70 0 0 -75 0 -75
70 0 70 0 0 75 0 75 75 0 75 0 0 -75 0 -75 70 0 70 0 0 145 0 145 70 0 70 0 0
-70 0 -70 75 0 75 0 0 70 0 70 -75 0 -75 0 0 145 0 145 -70 0 -70 0 0 70 0 70
-70 0 -70 0 0 -215z"/>
<path d="M5380 6860 l0 -70 75 0 75 0 0 70 0 70 -75 0 -75 0 0 -70z"/>
<path d="M6250 6425 l0 -75 -75 0 -75 0 0 -70 0 -70 -70 0 -70 0 0 -70 0 -70
145 0 145 0 0 70 0 70 140 0 140 0 0 145 0 145 -140 0 -140 0 0 -75z"/>
<path d="M5380 6280 l0 -70 -70 0 -70 0 0 -70 0 -70 70 0 70 0 0 70 0 70 75 0
75 0 0 70 0 70 -75 0 -75 0 0 -70z"/>
<path d="M6680 5925 l0 -145 70 0 70 0 0 -75 0 -75 75 0 75 0 0 220 0 220
-145 0 -145 0 0 -145z"/>
<path d="M4520 5560 l0 -70 70 0 70 0 0 70 0 70 -70 0 -70 0 0 -70z"/>
<path d="M7250 5415 l0 -215 75 0 75 0 0 215 0 215 -75 0 -75 0 0 -215z"/>
<path d="M7970 5560 l0 -70 75 0 75 0 0 70 0 70 -75 0 -75 0 0 -70z"/>
<path d="M6530 5130 l0 -70 75 0 75 0 0 70 0 70 -75 0 -75 0 0 -70z"/>
<path d="M7690 4840 l0 -70 70 0 70 0 0 70 0 70 -70 0 -70 0 0 -70z"/>
<path d="M7690 8730 l0 -500 500 0 500 0 0 500 0 500 -500 0 -500 0 0 -500z
m860 0 l0 -360 -360 0 -360 0 0 360 0 360 360 0 360 0 0 -360z"/>
<path d="M7970 8730 l0 -220 220 0 220 0 0 220 0 220 -220 0 -220 0 0 -220z"/>
<path d="M5530 8585 l0 -75 70 0 70 0 0 75 0 75 -70 0 -70 0 0 -75z"/>
<path d="M3800 7000 l0 -70 70 0 70 0 0 70 0 70 -70 0 -70 0 0 -70z"/>
<path d="M3370 4410 l0 -500 500 0 500 0 0 500 0 500 -500 0 -500 0 0 -500z
m860 0 l0 -360 -360 0 -360 0 0 360 0 360 360 0 360 0 0 -360z"/>
<path d="M3650 4410 l0 -220 220 0 220 0 0 220 0 220 -220 0 -220 0 0 -220z"/>
<path d="M4520 4625 l0 -145 70 0 70 0 0 -145 0 -145 -70 0 -70 0 0 -140 0
-140 145 0 145 0 0 285 0 285 -75 0 -75 0 0 145 0 145 -70 0 -70 0 0 -145z"/>
</g>
</svg>
